<svg id="Calque_1" data-name="Calque 1" xmlns="http://www.w3.org/2000/svg" viewBox="0 0 159.39 200.87"><defs><style>.cls-1{font-size:70px;font-family:Filson Soft;}.cls-1,.cls-5{fill:#fff;}.cls-2{fill:#ff6471;}.cls-3{fill:#ffe356;}.cls-4{fill:#fff7b1;}.cls-6{fill:none;stroke:#fff;stroke-miterlimit:10;}</style></defs><title>Sara_+_Logo</title><text class="cls-1" transform="translate(0 180.08)">Sa<tspan x="87.15" y="0">r</tspan><tspan x="113.75" y="0">a</tspan></text><path class="cls-2" d="M249.93,1122.7a2.22,2.22,0,0,1-.15,4.34,2.32,2.32,0,0,1-.9,0l-16.08-4a2.22,2.22,0,1,1,1.08-4.3Z" transform="translate(-97.82 -1055.22)"/><path class="cls-2" d="M244.28,1088.57a2.22,2.22,0,1,1,1.06,4.3l-14.5,3.57a2.34,2.34,0,0,1-.58.07,2.23,2.23,0,0,1-.48-4.39Z" transform="translate(-97.82 -1055.22)"/><path class="cls-2" d="M231,1057.22a2.22,2.22,0,1,1,2.87,3.38l-13.08,11.12a2.25,2.25,0,0,1-1.54.53,2.14,2.14,0,0,1-1.59-.79,2.2,2.2,0,0,1,.26-3.12Z" transform="translate(-97.82 -1055.22)"/><path class="cls-3" d="M212.8,1130.18c-0.32,8.32-2.24,12.46-4,12.89a1.28,1.28,0,0,1-.36,0,3.07,3.07,0,0,1-1.3-.34,2.09,2.09,0,0,0-.7-0.58c-0.1-.05-0.34-0.19-0.7-0.36-3.21-2.65-7.55-9.36-11.58-19.65,5-3.07,7.19-11.42,5-20.52s-8-15.62-13.9-16a89.89,89.89,0,0,1-.56-13c0.31-8.33,2.22-12.46,4-12.89a1.3,1.3,0,0,1,.36-0.05c4.29,0,13.85,14,20,39.25C211.77,1110.42,213.12,1121.54,212.8,1130.18Z" transform="translate(-97.82 -1055.22)"/><path class="cls-4" d="M194.85,1102.69c1.67,6.9.26,12.74-2.27,15.13-1.45-4.18-2.83-8.83-4.08-13.95-1.13-4.66-2-9.24-2.65-13.63C189.2,1091.16,193.18,1095.74,194.85,1102.69Z" transform="translate(-97.82 -1055.22)"/><path class="cls-3" d="M189.49,1122.34a88.57,88.57,0,0,0,7.36,15.54c-11.93-4.73-33-11.1-51.53-6.61l-11.58,2.78-7.67-31.64,10.69-2.6c18.46-4.46,34.87-20.27,43.69-30.22-0.09.9-.15,1.84-0.19,2.83a99.17,99.17,0,0,0,.84,15.86c0,0.09,0,.15,0,0.24a0.09,0.09,0,0,0,0,.07,152,152,0,0,0,3,16.31,160.86,160.86,0,0,0,4.9,16.34c0,0.1,0,.19,0,0.31A2.27,2.27,0,0,0,189.49,1122.34Z" transform="translate(-97.82 -1055.22)"/><path class="cls-3" d="M165.47,1159.2a6,6,0,1,1-10.79,5.24l-5-10.33,10.94-5Z" transform="translate(-97.82 -1055.22)"/><path class="cls-4" d="M153.41,1134.44l5.22,10.72-10.94,5-6.47-13.3,5.14-1.25A48.54,48.54,0,0,1,153.41,1134.44Z" transform="translate(-97.82 -1055.22)"/><path class="cls-4" d="M121.77,1103.45l7.65,31.64-1.33.32a16.37,16.37,0,0,1-12.41-1.88,16.24,16.24,0,0,1-5.41-22.42,16.42,16.42,0,0,1,10-7.31Z" transform="translate(-97.82 -1055.22)"/><path class="cls-5" d="M192.58,1117.81c2.53-2.39,3.94-8.23,2.27-15.13s-5.65-11.53-9-12.45c0.65,4.39,1.52,9,2.65,13.63C189.75,1109,191.13,1113.63,192.58,1117.81Zm6.59-16.17c2.2,9.1,0,17.45-5,20.52,4,10.3,8.37,17,11.58,19.65,0.36,0.17.6,0.31,0.7,0.36a2.09,2.09,0,0,1,.7.58,3.07,3.07,0,0,0,1.3.34,1.28,1.28,0,0,0,.36,0c1.74-.43,3.65-4.58,4-12.89,0.32-8.64-1-19.75-3.81-31.26-6.11-25.27-15.67-39.25-20-39.25a1.3,1.3,0,0,0-.36.05c-1.74.43-3.65,4.56-4,12.89a89.89,89.89,0,0,0,.56,13C191.18,1086,197,1092.48,199.17,1101.64Zm-40.53,43.52-5.22-10.72a48.54,48.54,0,0,0-7.05,1.13l-5.14,1.25,6.47,13.3Zm21.82-75.57c-8.83,10-25.24,25.77-43.69,30.22l-10.69,2.6,7.67,31.64,11.58-2.78c18.56-4.49,39.6,1.88,51.53,6.61a88.57,88.57,0,0,1-7.36-15.54,2.27,2.27,0,0,1-.39-0.79c0-.12,0-0.2,0-0.31a160.86,160.86,0,0,1-4.9-16.34,152,152,0,0,1-3-16.31,0.09,0.09,0,0,1,0-.07c0-.09,0-0.15,0-0.24a99.17,99.17,0,0,1-.84-15.86C180.3,1071.44,180.37,1070.5,180.46,1069.6Zm-17.76,97.63a6,6,0,0,0,2.77-8l-4.88-10-10.94,5,5,10.33A6,6,0,0,0,162.7,1167.23Zm-33.55-27.49a20.84,20.84,0,0,1-15.76-2.39,20.67,20.67,0,0,1-6.9-28.57,20.8,20.8,0,0,1,12.26-9.15l0.2-.05,16.77-4.34c21.94-5.29,41.18-28,46.54-34.85a2.12,2.12,0,0,1,.38-0.31c1.23-2.6,2.89-4.18,5-4.7a6.41,6.41,0,0,1,1.4-.17c9.6,0,19.31,22.11,24.28,42.65,2.87,11.9,4.27,23.44,3.91,32.48-0.38,10.07-2.92,16-7.36,17a6.29,6.29,0,0,1-1.4.17,8.55,8.55,0,0,1-5.05-1.95c-4.68-2.27-25.13-11.58-45.16-11.41l11.22,23.05a10.44,10.44,0,0,1-18.78,9.13l-13.88-28.5-4.18,1Zm-13.47-6.2a16.37,16.37,0,0,0,12.41,1.88l1.33-.32-7.65-31.64-1.49.36a16.42,16.42,0,0,0-10,7.31A16.24,16.24,0,0,0,115.68,1133.54Z" transform="translate(-97.82 -1055.22)"/><path class="cls-6" d="M128.09,1135.42a16.37,16.37,0,0,1-12.41-1.88,16.24,16.24,0,0,1-5.41-22.42,16.42,16.42,0,0,1,10-7.31l1.49-.36,7.65,31.64Z" transform="translate(-97.82 -1055.22)"/><path class="cls-6" d="M162.7,1167.23a6,6,0,0,1-8-2.78l-5-10.33,10.94-5,4.88,10A6,6,0,0,1,162.7,1167.23Z" transform="translate(-97.82 -1055.22)"/><path class="cls-6" d="M158.64,1145.17l-10.94,5-6.47-13.3,5.14-1.25a48.54,48.54,0,0,1,7.05-1.13Z" transform="translate(-97.82 -1055.22)"/><path class="cls-6" d="M145.32,1131.27l-11.58,2.78-7.67-31.64,10.69-2.6c18.46-4.46,34.87-20.27,43.69-30.22-0.09.9-.15,1.84-0.19,2.83a99.17,99.17,0,0,0,.84,15.86c0,0.09,0,.15,0,0.24a0.09,0.09,0,0,0,0,.07,152,152,0,0,0,3,16.31,160.86,160.86,0,0,0,4.9,16.34c0,0.1,0,.19,0,0.31a2.27,2.27,0,0,0,.39.79,88.57,88.57,0,0,0,7.36,15.54C184.91,1133.15,163.88,1126.78,145.32,1131.27Z" transform="translate(-97.82 -1055.22)"/><path class="cls-6" d="M185.85,1090.24c3.35,0.92,7.32,5.5,9,12.45s0.26,12.74-2.27,15.13c-1.45-4.18-2.83-8.83-4.08-13.95C187.37,1099.2,186.5,1094.63,185.85,1090.24Z" transform="translate(-97.82 -1055.22)"/><path class="cls-6" d="M212.8,1130.18c-0.32,8.32-2.24,12.46-4,12.89a1.28,1.28,0,0,1-.36,0,3.07,3.07,0,0,1-1.3-.34,2.09,2.09,0,0,0-.7-0.58c-0.1-.05-0.34-0.19-0.7-0.36-3.21-2.65-7.55-9.36-11.58-19.65,5-3.07,7.19-11.42,5-20.52s-8-15.62-13.9-16a89.89,89.89,0,0,1-.56-13c0.31-8.33,2.22-12.46,4-12.89a1.3,1.3,0,0,1,.36-0.05c4.29,0,13.85,14,20,39.25C211.77,1110.42,213.12,1121.54,212.8,1130.18Z" transform="translate(-97.82 -1055.22)"/><path class="cls-6" d="M230.26,1096.5a2.23,2.23,0,0,1-.48-4.39l14.5-3.55a2.22,2.22,0,1,1,1.06,4.3l-14.5,3.57A2.34,2.34,0,0,1,230.26,1096.5Z" transform="translate(-97.82 -1055.22)"/><path class="cls-6" d="M219.27,1072.24a2.14,2.14,0,0,1-1.59-.79,2.2,2.2,0,0,1,.26-3.12L231,1057.22a2.22,2.22,0,1,1,2.87,3.38l-13.08,11.12A2.25,2.25,0,0,1,219.27,1072.24Z" transform="translate(-97.82 -1055.22)"/><path class="cls-6" d="M249.78,1127a2.32,2.32,0,0,1-.9,0l-16.08-4a2.22,2.22,0,1,1,1.08-4.3l16.07,4A2.22,2.22,0,0,1,249.78,1127Z" transform="translate(-97.82 -1055.22)"/></svg>